# xmcd CD database file
#
# Track frame offsets:
#	150
#	18661
#	35449
#	53414
#	80467
#	96384
#	114190
#	142902
#	164078
#	181840
#	199554
#	226975
#	248927
#	270712
#	287775
#	313107
#
# Disc length: 4403 seconds
#
# Revision: 0
# Processed by: cddbd v1.5.2PL0 Copyright (c) Steve Scherf et al.
# Submitted via: CDex 1.51
#
DISCID=d8113110
DTITLE=Various Artist - The Nightfly - Cd 3: Tonight
DYEAR=2007
DGENRE=New Age
TTITLE0=Nick The Nightfly W Kim Prevost And Bill Solley - Patu Patu Patu
TTITLE1=Till Broenner - This Guy's In Love
TTITLE2=Aaron Neville (Featuring Chaka Khan) - Let's Stay Together
TTITLE3=Jamiroquai - Talullah
TTITLE4=Bill Withers - I Want To Spend The Night
TTITLE5=Corinne Bailey Rae - Like A Star
TTITLE6=Mario Berger - Hawaii
TTITLE7=John Mayer - Stop This Train
TTITLE8=Hedvig Hanson And Andre Maaker - You Bring Me Joy
TTITLE9=Amalia Gre' - Amami Per Sempre
TTITLE10=Christophe Goze - Promenade With Satie
TTITLE11=Georgia Mancio - Life On Mars?
TTITLE12=Barriere - Thunder Thru Sunshine
TTITLE13=Alyson Moyet - Windmills Of Your Mind
TTITLE14=Charlie Haden AndPat Metheny - Our Spanish Love Song
TTITLE15=Jim Tomlinson - Corcovado
EXTD=YEAR: 2007
EXTT0=
EXTT1=
EXTT2=
EXTT3=
EXTT4=
EXTT5=
EXTT6=
EXTT7=
EXTT8=
EXTT9=
EXTT10=
EXTT11=
EXTT12=
EXTT13=
EXTT14=
EXTT15=
PLAYORDER=
